<?xml version="1.0" standalone="no"?>
<!DOCTYPE svg PUBLIC "-//W3C//DTD SVG 20010904//EN"
 "http://www.w3.org/TR/2001/REC-SVG-20010904/DTD/svg10.dtd">
<svg version="1.0" xmlns="http://www.w3.org/2000/svg"
 width="1280.000000pt" height="960.000000pt" viewBox="0 0 1280.000000 960.000000"
 preserveAspectRatio="xMidYMid meet">
<metadata>
Created by potrace 1.15, written by Peter Selinger 2001-2017
</metadata>
<g transform="translate(0.000000,960.000000) scale(0.100000,-0.100000)"
fill="#000000" stroke="none">
<path d="M5990 9270 c-12 -22 5 -65 34 -89 20 -17 21 -49 2 -70 -8 -9 -17 -39
-21 -68 l-7 -52 46 -43 46 -43 -11 -58 c-12 -57 -7 -82 30 -156 4 -8 44 -33
88 -55 44 -23 151 -95 238 -160 270 -205 450 -297 612 -316 65 -7 79 -13 140
-58 193 -142 559 -328 735 -373 131 -33 169 -74 183 -197 6 -50 4 -67 -8 -80
-9 -10 -20 -56 -26 -111 -10 -82 -10 -96 4 -111 20 -22 15 -80 -21 -280 -47
-260 -84 -344 -160 -368 -32 -10 -57 -8 -153 10 l-114 21 -142 -23 c-79 -12
-153 -20 -166 -17 -13 4 -76 59 -139 123 -112 113 -194 180 -351 287 -75 51
-76 52 -75 93 1 27 -5 49 -16 61 -10 11 -18 32 -18 47 0 18 -10 38 -28 54 -16
15 -31 35 -35 44 -3 10 -19 20 -34 24 -15 4 -30 10 -33 13 -3 3 -24 19 -46 34
-38 26 -46 27 -80 18 -22 -6 -48 -17 -59 -24 -11 -8 -49 -17 -83 -20 l-64 -7
-136 81 c-76 44 -198 109 -272 145 -190 92 -272 148 -355 244 -82 96 -134 145
-232 223 -40 32 -79 70 -87 86 -43 82 -307 270 -565 400 -86 44 -187 98 -226
120 -38 23 -76 41 -83 41 -19 0 -93 53 -159 114 -32 29 -87 68 -122 86 -35 17
-89 48 -119 68 -125 84 -273 37 -298 -94 -13 -68 1 -95 106 -211 55 -60 117
-121 138 -135 27 -18 42 -38 50 -65 14 -46 72 -117 113 -139 17 -8 54 -37 84
-64 58 -52 98 -66 165 -57 38 5 39 4 142 -107 56 -61 117 -128 135 -149 18
-20 37 -37 42 -37 21 0 68 -36 106 -80 52 -60 138 -126 245 -185 111 -62 194
-122 250 -180 l45 -47 -65 5 c-371 32 -832 35 -853 6 -7 -9 -35 -18 -67 -22
-56 -6 -326 14 -435 33 -85 15 -180 18 -255 8 -101 -13 -193 -70 -355 -217
-51 -47 -141 -126 -250 -221 -33 -28 -83 -63 -112 -76 -55 -27 -133 -97 -133
-121 0 -9 -53 -68 -119 -132 -85 -83 -136 -143 -179 -211 -95 -148 -79 -135
-142 -116 -35 10 -92 16 -162 16 l-109 0 -19 43 c-28 64 -33 113 -21 213 18
146 72 335 106 374 7 8 16 31 20 50 3 19 22 100 41 180 19 80 39 164 44 188 7
30 7 49 -1 64 -7 13 -8 41 -4 76 6 47 12 60 43 86 20 17 54 48 77 68 23 21 72
49 109 63 36 14 133 54 214 89 81 35 172 71 203 80 60 17 130 70 154 117 8 15
15 44 15 64 0 19 5 44 12 54 9 15 1 38 -52 137 -96 183 -141 246 -268 378 -65
66 -131 139 -147 161 -17 22 -70 81 -120 130 -50 50 -106 113 -124 142 -39 60
-76 75 -116 49 -13 -9 -42 -16 -64 -16 -27 0 -44 -6 -53 -18 -7 -10 -30 -28
-50 -41 -25 -15 -38 -30 -38 -44 0 -29 -10 -43 -37 -51 -13 -4 -26 -18 -29
-30 -8 -32 19 -91 50 -111 14 -10 26 -26 26 -36 0 -24 75 -136 100 -149 10 -6
55 -10 99 -10 l80 0 31 -37 c17 -21 52 -81 77 -133 49 -102 114 -253 110 -255
-12 -8 -243 -85 -254 -85 -8 0 -31 11 -51 25 -44 30 -116 33 -205 10 -64 -16
-107 -8 -107 22 -1 37 -72 220 -104 268 -34 51 -56 89 -56 99 0 3 14 3 30 0
40 -8 40 13 0 51 -31 30 -39 55 -17 55 9 0 9 2 0 8 -8 5 -9 13 -3 22 6 10 1
19 -21 32 -16 10 -34 29 -39 43 -17 44 -49 109 -62 125 -7 9 -35 32 -61 52
-59 45 -148 67 -298 75 -133 7 -169 -1 -325 -78 -118 -57 -123 -61 -162 -121
-61 -94 -82 -168 -84 -296 -2 -112 3 -170 20 -212 5 -14 13 -45 17 -69 5 -30
10 -39 16 -30 6 10 9 5 10 -16 1 -17 3 -22 6 -12 2 9 9 17 15 17 7 0 9 19 6
50 -3 28 -4 50 -2 50 2 0 9 -20 15 -45 6 -24 19 -54 29 -65 10 -12 21 -39 25
-61 4 -21 11 -37 15 -34 5 3 12 -1 17 -8 4 -7 23 -19 41 -26 26 -11 32 -19 32
-42 0 -16 5 -29 11 -29 8 0 8 -5 -1 -15 -7 -8 -9 -15 -5 -15 4 0 2 -7 -5 -15
-15 -18 1 -21 31 -5 21 12 25 1 7 -19 -11 -11 -9 -12 10 -6 17 5 24 1 31 -17
5 -14 5 -28 -1 -35 -8 -10 -4 -13 16 -13 15 0 25 -5 23 -12 -1 -7 4 -12 11
-11 13 3 17 -129 6 -200 l-7 -38 -82 7 c-106 8 -169 -11 -231 -70 -42 -41 -44
-45 -44 -101 0 -33 -10 -90 -24 -134 -43 -134 -50 -270 -21 -382 5 -21 -3 -41
-40 -98 -62 -96 -75 -130 -75 -199 0 -42 7 -72 26 -109 33 -67 140 -168 195
-185 52 -15 58 -28 102 -229 47 -209 49 -231 37 -340 -9 -78 -15 -98 -34 -116
-15 -14 -26 -38 -30 -70 -18 -120 -121 -609 -152 -714 -18 -63 -31 -125 -28
-136 5 -18 -2 -26 -38 -44 -57 -29 -205 -137 -224 -163 -21 -30 -20 -209 2
-230 8 -9 20 -16 25 -16 5 0 23 -10 39 -21 l28 -22 37 23 c33 21 37 21 54 6
22 -20 55 -21 70 -2 6 7 21 11 34 9 34 -6 46 8 63 73 8 32 27 76 42 97 15 21
41 59 59 85 17 26 43 58 57 72 14 14 26 35 26 46 0 38 36 126 138 340 110 229
149 334 183 489 12 55 23 102 24 103 2 2 75 -69 162 -158 87 -89 204 -198 260
-241 57 -44 140 -116 186 -162 94 -92 97 -99 97 -232 0 -129 19 -331 40 -430
11 -49 40 -148 65 -219 25 -74 41 -134 36 -139 -18 -18 20 -123 48 -132 10 -3
44 -77 90 -192 40 -104 100 -254 131 -335 32 -80 61 -166 65 -190 4 -23 25
-97 47 -163 35 -101 45 -151 65 -315 20 -171 21 -195 8 -203 -21 -11 -19 -35
15 -354 39 -356 76 -641 95 -720 25 -105 20 -151 -29 -263 -82 -186 -182 -301
-319 -368 -47 -23 -93 -52 -101 -64 -9 -13 -16 -43 -16 -68 0 -56 37 -105 86
-113 17 -3 41 -10 52 -16 29 -15 79 -14 132 4 25 8 58 17 73 20 36 7 107 73
159 147 32 45 48 59 72 62 17 3 69 10 115 16 107 15 184 48 211 92 30 50 26
111 -18 240 -41 119 -70 293 -58 344 10 42 14 79 20 167 3 43 17 145 31 225
27 162 50 360 46 407 -1 17 0 59 1 95 8 170 0 285 -26 380 -15 52 -42 165 -60
250 -30 139 -34 177 -40 370 -6 221 -21 373 -57 589 -16 93 -19 132 -11 157
12 39 -6 127 -29 146 -27 21 -29 56 -9 152 29 143 31 161 36 346 4 117 10 187
19 210 65 158 79 379 33 515 l-23 69 45 46 c46 47 110 163 134 242 7 24 33 71
58 105 44 59 77 129 115 243 14 43 25 58 48 68 17 8 41 28 53 45 21 28 23 29
17 8 l-7 -24 28 22 c34 26 74 84 74 106 0 8 16 47 35 85 19 38 53 126 76 197
63 193 66 197 139 213 55 12 71 11 153 -8 221 -50 376 -53 547 -9 56 14 111
22 135 20 38 -4 79 4 510 107 66 15 156 34 200 40 44 7 90 16 103 21 13 5 41
9 64 9 35 0 45 -6 79 -44 46 -52 113 -79 189 -75 47 3 56 -1 174 -79 79 -53
133 -96 148 -120 43 -63 118 -141 132 -136 8 3 40 -25 77 -67 118 -134 213
-231 334 -339 74 -66 149 -145 194 -204 l74 -97 -22 -23 c-25 -27 -67 -143
-79 -220 -17 -110 9 -273 69 -422 16 -43 29 -93 29 -118 0 -70 27 -195 80
-367 54 -174 58 -207 35 -262 -20 -47 -19 -87 1 -116 15 -21 16 -46 10 -210
-19 -555 -19 -743 -2 -821 24 -102 22 -239 -5 -380 -17 -89 -22 -155 -23 -290
-1 -107 -6 -182 -12 -194 -6 -10 -10 -26 -8 -35 2 -9 13 -101 24 -206 11 -104
31 -278 46 -385 34 -255 30 -378 -14 -466 -66 -131 -50 -236 49 -314 62 -48
70 -66 98 -216 33 -170 71 -218 194 -243 58 -11 70 -11 98 3 18 9 40 14 49 11
22 -7 93 34 125 72 21 26 25 39 20 62 -6 29 -34 60 -72 80 -28 14 -123 202
-156 306 -55 179 -70 269 -65 406 3 71 10 134 15 141 6 7 23 92 38 188 14 96
31 194 36 217 14 64 69 520 69 572 0 26 -6 53 -12 59 -9 9 -12 62 -10 200 3
136 -1 214 -13 284 -18 114 -10 188 35 333 16 50 49 171 74 270 62 249 112
407 132 422 24 17 46 109 32 132 -8 13 -4 47 15 137 40 187 50 298 44 472 -5
147 -18 234 -38 257 -5 5 -9 21 -9 36 0 22 8 31 43 47 60 29 190 85 271 117
38 15 110 53 160 85 50 31 150 91 221 133 210 123 293 180 415 285 120 103
190 175 272 278 39 50 55 63 85 69 51 9 88 30 138 76 l42 39 18 -168 c10 -92
21 -243 25 -337 7 -180 15 -216 65 -280 13 -18 39 -38 57 -45 18 -6 43 -17 54
-22 17 -8 52 1 167 40 80 28 160 58 179 68 55 28 221 140 256 173 23 21 44 31
66 31 22 0 39 8 54 25 12 14 28 25 34 25 7 1 34 20 61 45 32 30 47 51 47 69 0
14 10 44 21 66 18 33 20 46 11 65 -13 29 -168 135 -197 135 -11 0 -28 9 -38
20 -31 37 -109 16 -93 -25 3 -8 -3 -30 -13 -47 -10 -18 -25 -56 -32 -85 -12
-48 -16 -53 -59 -72 -56 -24 -112 -37 -202 -46 l-68 -7 -1 68 c0 38 -2 78 -4
89 -13 71 -17 463 -5 568 13 111 14 117 36 117 15 0 29 11 42 33 26 43 29 208
5 364 -13 89 -14 118 -5 138 7 14 12 48 12 75 0 47 -2 52 -42 81 -66 47 -103
59 -189 59 -43 0 -90 5 -103 12 -22 9 -29 8 -46 -7 -20 -18 -21 -18 -51 11
-18 16 -44 47 -60 68 -28 38 -29 43 -29 158 0 99 -3 124 -20 155 -30 56 -25
89 19 153 52 75 121 207 121 233 0 32 13 11 55 -88 81 -194 227 -440 386 -652
169 -224 394 -437 654 -618 93 -65 332 -205 350 -205 5 0 -35 25 -89 56 -258
145 -548 376 -755 599 -156 168 -145 171 20 4 224 -228 401 -356 634 -460 193
-86 645 -212 800 -223 48 -4 60 -3 40 3 -51 14 -6 12 149 -9 81 -11 154 -20
162 -20 22 0 16 18 -8 26 l-23 8 25 6 c18 4 4 8 -46 13 -174 17 -525 93 -502
110 8 5 2 6 -17 3 -25 -5 -27 -4 -12 5 11 6 40 8 70 5 l52 -5 -45 10 c-25 5
-77 16 -117 24 -39 7 -87 20 -105 29 -18 8 -63 26 -100 40 -78 29 -265 130
-228 123 62 -12 324 -73 520 -122 274 -69 283 -71 175 -34 -49 17 -214 62
-365 100 -371 92 -436 117 -587 218 -125 84 -155 109 -112 96 13 -4 71 -20
129 -35 58 -15 184 -55 280 -88 171 -60 474 -148 608 -177 37 -8 157 -35 266
-59 110 -25 202 -44 204 -41 6 6 -13 13 -96 36 -56 16 -60 18 -22 13 25 -3 59
-7 75 -10 22 -4 26 -2 15 5 -14 9 -58 16 -320 56 -102 16 -169 31 -410 93
-144 37 -405 123 -419 138 -3 4 3 4 14 1 11 -3 72 -13 135 -22 63 -9 166 -25
229 -36 62 -11 120 -18 129 -14 23 9 400 -35 572 -67 55 -10 61 -13 40 -20
-22 -7 -21 -7 6 -3 17 2 64 -5 105 -15 88 -23 105 -24 64 -4 -27 13 -27 14 -5
10 98 -17 104 -16 35 9 -69 25 -134 38 -365 75 -63 10 -108 18 -100 19 22 1
301 -28 330 -35 20 -5 22 -4 10 6 -12 9 -5 10 31 6 26 -3 102 -7 170 -10 l124
-5 -85 14 c-47 7 -148 19 -225 26 -83 8 -129 16 -115 20 l25 6 -25 6 c-14 3
-79 11 -145 17 -66 6 -167 18 -225 28 l-105 17 145 3 c80 2 237 -2 350 -7 177
-9 271 -19 457 -45 21 -3 5 4 -36 16 -74 22 -86 38 -14 19 34 -9 36 -9 19 4
-11 8 -25 15 -30 15 -6 0 -47 7 -92 15 -115 20 -377 43 -694 60 -454 25 -871
94 -1045 175 l-40 18 95 -5 c52 -3 124 -14 160 -24 195 -57 449 -94 741 -109
219 -11 542 -41 698 -65 162 -25 179 -26 101 -5 -41 11 -83 20 -93 20 -10 0
-16 4 -12 10 3 5 -9 14 -27 20 l-33 10 35 -5 35 -4 -30 14 c-16 7 -64 19 -105
25 -41 6 -91 15 -110 19 -33 8 -32 8 28 16 34 4 61 9 60 10 -2 2 -95 13 -208
25 -113 12 -214 25 -225 30 -12 5 66 9 195 11 314 3 438 -1 599 -17 80 -7 146
-12 148 -10 5 5 -101 23 -217 37 -52 6 -293 13 -535 14 -435 4 -570 9 -560 24
2 5 51 11 107 15 57 4 189 18 293 31 326 40 398 47 453 44 28 -2 52 -1 52 4 0
4 26 7 57 7 31 0 54 2 52 4 -3 3 -47 5 -99 6 -97 1 -245 -11 -675 -54 -349
-35 -385 -38 -385 -29 0 5 48 26 108 48 59 21 134 52 167 67 46 22 76 28 130
29 48 1 60 3 40 8 l-30 6 40 12 c84 25 188 13 384 -43 46 -13 86 -22 88 -20 8
8 -205 77 -281 91 -44 9 -81 17 -84 19 -5 5 19 12 103 27 l70 13 -39 8 c-23 5
-53 4 -75 -2 -45 -12 -61 -12 -40 0 32 18 205 52 274 52 39 1 145 -1 237 -3
92 -3 166 -4 165 -3 -5 6 -159 37 -212 44 -51 7 -45 7 35 5 71 -3 89 -1 70 6
-38 16 -315 7 -463 -13 -73 -10 -251 -36 -397 -58 -396 -59 -540 -73 -540 -50
0 6 6 10 13 10 7 0 74 28 147 61 162 74 228 88 440 90 115 2 138 4 90 9 l-65
6 60 5 c33 3 -20 5 -118 5 -97 -1 -177 1 -177 4 1 6 146 94 203 123 48 25 216
35 311 18 38 -7 70 -10 72 -8 7 7 -202 47 -245 47 -23 0 -40 4 -37 9 3 5 72
48 153 97 181 107 196 120 73 59 -52 -26 -90 -43 -85 -37 16 17 225 127 287
152 32 13 56 25 54 27 -5 6 -126 -43 -201 -80 -33 -16 -137 -76 -232 -133
-140 -85 -185 -107 -240 -118 -172 -37 -305 -91 -555 -227 -202 -111 -207
-112 -313 -94 -48 9 -105 25 -128 36 -78 39 -318 181 -314 185 2 2 23 -3 47
-11 117 -41 269 -28 485 42 153 50 208 75 343 157 149 90 372 202 467 234 131
44 233 63 385 72 85 4 115 8 80 10 -58 4 -134 2 -240 -4 l-65 -5 65 13 c36 8
55 14 44 15 -36 2 -180 -28 -262 -55 -109 -36 -276 -118 -454 -222 -84 -49
-182 -104 -218 -122 -68 -34 -183 -80 -201 -80 -6 0 19 29 55 64 35 35 74 84
87 108 34 68 121 197 177 265 53 64 66 86 35 62 -15 -11 -14 -9 1 9 11 12 22
20 24 17 3 -3 15 3 26 14 52 47 231 145 344 187 142 54 451 81 557 49 27 -8
51 -13 52 -11 6 5 -101 47 -159 62 l-53 13 70 -4 c99 -5 49 13 -69 25 -208 22
-462 -45 -647 -171 -129 -87 -277 -257 -375 -429 -98 -173 -171 -261 -230
-276 -50 -13 -140 4 -244 45 -196 76 -293 149 -438 331 l-84 105 5 51 c4 40
12 57 36 82 17 17 32 42 32 56 6 125 3 168 -12 177 -9 4 -22 22 -29 39 -7 18
-24 36 -37 41 -13 5 -26 17 -29 26 -11 36 -21 47 -52 55 -17 5 -33 17 -37 27
-7 22 -77 41 -150 41 -40 0 -49 -5 -99 -54 -30 -29 -58 -65 -62 -80 -4 -18
-13 -26 -28 -26 -32 0 -244 -63 -352 -105 -126 -49 -129 -52 -130 -188 -1 -88
-6 -125 -23 -172 -28 -76 -41 -153 -28 -158 13 -4 -18 -131 -38 -161 -9 -12
-15 -44 -15 -82 0 -81 -6 -97 -30 -82 -22 14 -50 -4 -50 -33 0 -32 -51 -23
-117 20 -104 67 -100 66 -119 26 -19 -41 -28 -42 -157 -20 -97 17 -222 62
-343 123 -44 22 -129 61 -190 87 -60 26 -140 63 -179 82 -126 64 -165 83 -174
83 -5 0 -23 12 -41 26 -17 15 -56 34 -88 44 -220 69 -676 248 -731 287 -2 1 6
33 19 70 32 98 37 173 14 195 -28 25 -182 79 -218 77 -17 -2 -50 7 -73 19 -42
22 -42 22 -53 2z m5443 -197 c-13 -2 -33 -2 -45 0 -13 2 -3 4 22 4 25 0 35 -2
23 -4z m-1537 -779 c26 -15 88 -45 138 -65 101 -43 83 -53 -25 -15 -82 29
-159 79 -224 147 l-50 52 57 -46 c31 -25 78 -58 104 -73z m1299 -79 c-70 -57
-297 -167 -313 -151 -1 2 68 39 155 82 87 43 160 82 161 86 2 4 9 8 15 8 7 -1
-1 -12 -18 -25z m-105 -25 c-8 -5 -19 -10 -25 -10 -5 0 -3 5 5 10 8 5 20 10
25 10 6 0 3 -5 -5 -10z m-1107 -179 c23 -15 61 -38 85 -50 45 -23 56 -37 20
-25 -26 8 -158 91 -158 99 0 10 12 5 53 -24z m1654 4 c-33 -7 -69 -17 -80 -23
-98 -46 -160 -62 -248 -62 -102 0 -111 14 -17 24 43 5 58 10 47 17 -9 6 3 7
36 4 28 -2 41 -1 30 2 -12 4 29 15 110 29 143 24 214 29 122 9z m-94 -82 c-7
-2 -19 -2 -25 0 -7 3 -2 5 12 5 14 0 19 -2 13 -5z m-303 -23 c11 -7 1 -10 -35
-10 -27 0 -57 5 -65 10 -11 7 -1 10 35 10 28 0 57 -5 65 -10z m83 3 c-13 -2
-33 -2 -45 0 -13 2 -3 4 22 4 25 0 35 -2 23 -4z m-114 -43 c-10 -6 -83 -6
-190 -1 l-174 8 190 1 c124 1 184 -2 174 -8z m-258 -22 c-75 -6 -164 -6 -225
0 -91 8 -79 9 124 9 220 0 222 0 101 -9z m177 -13 c-11 -11 -254 -85 -279 -85
-35 0 -108 19 -124 33 -5 5 -32 18 -58 30 l-49 22 257 1 c141 1 255 0 253 -1z
m182 1 c0 -6 -93 -37 -97 -32 -2 2 15 11 39 19 47 17 58 19 58 13z m-789 -62
c61 -30 113 -54 115 -52 2 2 -35 24 -81 48 -46 25 -82 46 -81 48 2 1 49 -20
106 -46 95 -45 100 -49 72 -55 -16 -3 -47 -1 -68 5 -43 11 -266 96 -273 103
-2 3 19 5 47 5 43 0 71 -10 163 -56z m134 -22 c-3 -3 -11 0 -18 7 -9 10 -8 11
6 5 10 -3 15 -9 12 -12z m333 -99 c-10 -2 -28 -2 -40 0 -13 2 -5 4 17 4 22 1
32 -1 23 -4z m129 1 c-3 -3 -12 -4 -19 -1 -8 3 -5 6 6 6 11 1 17 -2 13 -5z
m138 -54 c22 -5 110 -12 195 -15 85 -2 223 -10 305 -17 130 -10 144 -13 105
-20 -25 -5 -61 -6 -80 -3 -66 10 -275 26 -400 31 -69 2 -156 11 -195 18 l-70
14 50 1 c28 0 68 -4 90 -9z m-128 -36 c-3 -3 -12 -4 -19 -1 -8 3 -5 6 6 6 11
1 17 -2 13 -5z m-827 -138 c80 -50 161 -102 180 -114 57 -35 26 -25 -70 23
-149 75 -264 154 -296 204 l-17 25 29 -23 c16 -12 94 -64 174 -115z m667 128
c-3 -3 -12 -4 -19 -1 -8 3 -5 6 6 6 11 1 17 -2 13 -5z m240 0 c-3 -3 -12 -4
-19 -1 -8 3 -5 6 6 6 11 1 17 -2 13 -5z m806 -171 c-7 -2 -19 -2 -25 0 -7 3
-2 5 12 5 14 0 19 -2 13 -5z m85 -10 c-10 -2 -26 -2 -35 0 -10 3 -2 5 17 5 19
0 27 -2 18 -5z m65 -10 c-7 -2 -21 -2 -30 0 -10 3 -4 5 12 5 17 0 24 -2 18 -5z
m-556 -99 c-3 -3 -12 -4 -19 -1 -8 3 -5 6 6 6 11 1 17 -2 13 -5z m-876 -117
c31 -20 59 -34 63 -32 3 3 4 2 1 -2 -3 -3 0 -11 5 -18 5 -6 -40 12 -101 42
-61 29 -115 53 -121 53 -12 0 -98 48 -98 55 0 12 204 -68 251 -98z m-136 -44
c33 -18 56 -33 51 -33 -13 0 -139 68 -166 91 -21 18 -19 18 15 -2 22 -13 67
-38 100 -56z m249 -133 c13 -13 -115 38 -129 51 -5 5 20 -2 55 -16 35 -14 69
-30 74 -35z m125 -21 c87 -19 292 -80 364 -108 39 -16 104 -35 142 -42 39 -7
62 -15 52 -17 -38 -8 -385 77 -507 124 -63 24 -155 72 -116 59 11 -3 40 -10
65 -16z m466 -119 c42 -12 54 -18 30 -14 -50 7 -115 23 -115 29 0 8 11 6 85
-15z m118 -27 c-7 -2 -21 -2 -30 0 -10 3 -4 5 12 5 17 0 24 -2 18 -5z m280
-40 c-7 -2 -19 -2 -25 0 -7 3 -2 5 12 5 14 0 19 -2 13 -5z"/>
<path d="M11008 6923 c7 -3 16 -2 19 1 4 3 -2 6 -13 5 -11 0 -14 -3 -6 -6z"/>
<path d="M11055 6910 c11 -5 27 -9 35 -9 9 0 8 4 -5 9 -11 5 -27 9 -35 9 -9 0
-8 -4 5 -9z"/>
<path d="M11740 9050 c8 -5 20 -10 25 -10 6 0 3 5 -5 10 -8 5 -19 10 -25 10
-5 0 -3 -5 5 -10z"/>
<path d="M11643 8713 c9 -2 25 -2 35 0 9 3 1 5 -18 5 -19 0 -27 -2 -17 -5z"/>
<path d="M12013 8633 c9 -2 23 -2 30 0 6 3 -1 5 -18 5 -16 0 -22 -2 -12 -5z"/>
<path d="M11968 8623 c7 -3 16 -2 19 1 4 3 -2 6 -13 5 -11 0 -14 -3 -6 -6z"/>
<path d="M11748 8283 c6 -2 18 -2 25 0 6 3 1 5 -13 5 -14 0 -19 -2 -12 -5z"/>
<path d="M11543 8113 c9 -2 23 -2 30 0 6 3 -1 5 -18 5 -16 0 -22 -2 -12 -5z"/>
<path d="M11568 8093 c12 -2 30 -2 40 0 9 3 -1 5 -23 4 -22 0 -30 -2 -17 -4z"/>
<path d="M12223 8053 c9 -2 25 -2 35 0 9 3 1 5 -18 5 -19 0 -27 -2 -17 -5z"/>
<path d="M12015 7990 c3 -5 16 -10 28 -10 18 0 19 2 7 10 -20 13 -43 13 -35 0z"/>
<path d="M11718 7973 c6 -2 18 -2 25 0 6 3 1 5 -13 5 -14 0 -19 -2 -12 -5z"/>
<path d="M12375 7973 c11 -3 60 -18 109 -34 98 -33 129 -34 39 -1 -74 26 -134
42 -153 41 -8 -1 -6 -3 5 -6z"/>
<path d="M11768 7963 c7 -3 16 -2 19 1 4 3 -2 6 -13 5 -11 0 -14 -3 -6 -6z"/>
<path d="M11568 7863 c7 -3 16 -2 19 1 4 3 -2 6 -13 5 -11 0 -14 -3 -6 -6z"/>
<path d="M11608 7853 c7 -3 16 -2 19 1 4 3 -2 6 -13 5 -11 0 -14 -3 -6 -6z"/>
<path d="M12433 7743 c9 -2 23 -2 30 0 6 3 -1 5 -18 5 -16 0 -22 -2 -12 -5z"/>
<path d="M12498 7733 c7 -3 16 -2 19 1 4 3 -2 6 -13 5 -11 0 -14 -3 -6 -6z"/>
<path d="M12043 7523 c9 -2 25 -2 35 0 9 3 1 5 -18 5 -19 0 -27 -2 -17 -5z"/>
<path d="M12118 7513 c6 -2 18 -2 25 0 6 3 1 5 -13 5 -14 0 -19 -2 -12 -5z"/>
<path d="M12160 7460 c8 -5 24 -9 35 -9 l20 0 -20 9 c-11 5 -27 9 -35 9 -13 1
-13 0 0 -9z"/>
<path d="M11938 7283 c12 -2 32 -2 45 0 12 2 2 4 -23 4 -25 0 -35 -2 -22 -4z"/>
<path d="M12038 7273 c12 -2 30 -2 40 0 9 3 -1 5 -23 4 -22 0 -30 -2 -17 -4z"/>
<path d="M12148 7263 c7 -3 16 -2 19 1 4 3 -2 6 -13 5 -11 0 -14 -3 -6 -6z"/>
<path d="M11628 6753 c7 -3 16 -2 19 1 4 3 -2 6 -13 5 -11 0 -14 -3 -6 -6z"/>
<path d="M11040 6740 c8 -5 20 -10 25 -10 6 0 3 5 -5 10 -8 5 -19 10 -25 10
-5 0 -3 -5 5 -10z"/>
</g>
</svg>
